<svg id="Layer_1" data-name="Layer 1" xmlns="http://www.w3.org/2000/svg" viewBox="0 0 586.21 230.36"><defs><style>.cls-1{fill:#fff;}</style></defs><title>Quikly</title><path class="cls-1" d="M367.31,287.71c-.06.22-6.46,22.18-15.63,27.8-3.5,2.14-6.27,2.21-8.12.11-2.1-2.39-2.94-7.49-2.2-13.32.1-.76.23-1.7.39-2.78,1.34-9.2,3.82-26.33-2.25-30.94-3.33-2.52-10.37-4.34-16.76-4.34-10,0-16,4.21-16.44,11.54-1,15.6-4.61,28.61-10.4,37.63-1.27,2-2.94,3.07-4.7,3.07a4.85,4.85,0,0,1-3.59-1.75c-2.15-2.36-3.1-6.66-2.62-11.8,1.57-16.78,2.17-21.3,4.54-34.56l.12-.68c1.11-6.18,2.16-12-.59-15.31-2-2.36-5.52-3-11-1.86-13.28,2.69-17.34,5.08-18,5.52-1.1.44-9.77,4.34-9.77,18.62,0,1.51,0,3.36-.07,5.45-.33,17.93-1,55.25,16.74,66.6.25.19,6.11,4.7,13.5,4.7h0c7.67,0,13.92-4.73,18.58-14,.18-.34,4.16-8.05,8.8-27.8,1.71,10.07,7.83,34.33,27,34.33A30.2,30.2,0,0,0,347,341a47.21,47.21,0,0,0,21.84-37.32V282.38l-1.53,5.33" transform="translate(-104 -191.23)"/><path class="cls-1" d="M544.14,280.19l-.35-.34h-.36c-.73,0-1.29.38-3,5.61-5.19,15.85-10.94,25.71-19.86,34a3.29,3.29,0,0,1-2.32,1h0c-3,0-8.72-3.62-19.15-20.87-4.5-7.44,11.72-24.79,19.52-33.13l1.3-1.39c3.44-3.7,3.2-6.69,2.4-8.54-1.92-4.41-9.3-7.38-18.36-7.38-11.38,0-28.91,30.88-34.1,40.49V218.35c0-.28.46-6.94-3.36-11.05-2.93-3.15-7.56-3.9-13.61-2.16-18.18,5.24-21.74,12-21.74,22V333.9c0,.52,0,12.66,8.24,15.74l1.92.73c4.63,1.79,11,4.25,16.57,4.25h0c3.63,0,6.49-1.06,8.48-3.16,2.32-2.45,3.5-6.34,3.5-11.58V321.55c7.88,16.19,24.55,29.29,37.92,29.29h0a17.22,17.22,0,0,0,11.7-4.26c14.24-12.48,22.12-42.28,22.47-43.62,1.61-9.67,3.31-21.47,2.21-22.76" transform="translate(-104 -191.23)"/><path class="cls-1" d="M593.88,292.39C585.52,307.1,578.21,311,572,303.59c-4.4-5.25-4.67-15.51-4.69-17.33,23.27-26.94,28.94-65.66,25.51-84.61-1.16-6.43-6.08-10.43-12.83-10.43-13.41,0-31.08,15.7-38.19,50.16-10.93,52.93-4.76,75.06-.25,91.22l.26.92c3.1,11.14,11.48,18.62,20.86,18.62a19.88,19.88,0,0,0,12.12-4.37C587.68,338,595,311.09,595.3,309.95l0-20.12-1.46,2.57M568.05,227c3-8,7.28-5.41,7.82-.91.41,3.47,1.07,23.35-10.35,44.56C565.52,270.65,563.81,238.14,568.05,227Z" transform="translate(-104 -191.23)"/><path class="cls-1" d="M689.13,255c-1.47-2.06-4.38-3.11-8.66-3.11-6.11,0-13.94,2.14-18.78,4-9.06,3.42-13.37,22.54-13.53,23.32-.06.23-6.5,23.8-15.1,36.79-2.47,3.73-3.94,4.29-4.6,4.29-2.3,0-3.28-6.73-3.4-10.05-.74-6.26,1-17.88,2.8-30.18.73-4.92,1.48-10,2.14-15.1.45-3.51-.12-6.2-1.7-8s-3.88-2.58-7.06-2.58c-7.91,0-19,5.31-22.85,8-6.24,4.34-6.31,18.49-6.31,19.07-.49,21.23,3,43.67,6.53,55.53,2.43,8.3,8.91,13.87,16.11,13.87a16.36,16.36,0,0,0,9.51-3.28c7.53-5.33,13.12-18,15.91-24.47-.56,9.44-1.81,34.39-1.81,54,0,21.38,6.9,33.55,23.81,42,3.39,1.69,6.26,2.55,8.55,2.55a6,6,0,0,0,4.85-2.06c2.41-2.87,1.84-7.88,1.48-9.9-.77-4.35-2.32-15.45-2.33-15.53-5.19-46.16.83-79.37,1.3-82.49,1.86-12.3,6.77-29.8,11.66-43.76.6-1.71,1.18-3.38,1.75-5,1.16-3.35,1.07-6-.27-7.89" transform="translate(-104 -191.23)"/><path class="cls-1" d="M430.87,285.35l-1.18,2.86c-.08.19-7.82,18.82-16,26-1.86,1.64-3.52,2.48-4.93,2.48-3.95,0-5.46-6.78-5.73-10.78-.51-7.56-.13-11.61.7-20.49.22-2.29.46-4.9.73-8l.16-1.85c.54-6,.9-9.95-1.27-12.32-1.67-1.83-4.6-2.57-10.12-2.57-3.34,0-7.7.27-14.53.89-.1,0-9.68.61-10.09,10.49,0,.75-.13,1.9-.26,3.38-1.09,12.94-4.43,52.33,16.79,65.7a27,27,0,0,0,13.12,3.74,18.62,18.62,0,0,0,14.37-6.61c11.08-12.44,19.75-36.06,19.83-36.29l.06-.17-1.7-16.51" transform="translate(-104 -191.23)"/><path class="cls-1" d="M385.63,250.42a28.7,28.7,0,0,0,5.92.66c10.3,0,16.45-6.85,16.45-18.32,0-10.38-7.7-17.14-20.59-18.1-8-.6-14.15,1.27-17.74,5.37-2.89,3.29-4,7.85-3.36,13.17,1.29,9.85,6.52,14.52,19.32,17.21" transform="translate(-104 -191.23)"/><path class="cls-1" d="M241.18,277.3c.87-22.2-5.1-40.62-17.28-53.28-12.81-13.33-32.16-19.59-55.49-17.93C124,209.24,102.94,234.4,104,283c.73,32.25,11.76,55.4,30.61,66.4a26.61,26.61,0,0,0-7.33,6.12c-1.65,2.2-2,4.72-1,6.72,1.41,2.83,5.26,3.57,8.7,1.43l.55-.34c4-2.5,10.71-6.69,18.51-6.69a22.6,22.6,0,0,1,10.94,2.9c.42.23.85.48,1.27.73l5.87,3.81,2.93,2c3.27,2.26,7,4.81,10.76,7.17a58.47,58.47,0,0,0,16.77,8.28,32.13,32.13,0,0,0,9.77,1.69h0a22.4,22.4,0,0,0,2.65-.15c9.24-.54,17.16-5.18,23.5-13.76,4.19-5.07,2.82-9.41.38-11.58-2.12-1.89-5.07-1.92-9.94-2-1.08,0-2.25,0-3.54-.05a38.92,38.92,0,0,1-18.6-5.76c-1.35-.76-2.69-1.45-4-2.09,24.39-11.76,37-35.09,38.43-70.58m-70.89,63.62c-15.19,0-20.4-26.71-20.4-59.35s3.38-58.33,20.27-58.33c17.15,0,20.26,25.68,20.26,58.33S191.73,340.92,170.29,340.92Z" transform="translate(-104 -191.23)"/></svg>
